<?xml version="1.0" standalone="no"?>
<!DOCTYPE svg PUBLIC "-//W3C//DTD SVG 20010904//EN"
 "http://www.w3.org/TR/2001/REC-SVG-20010904/DTD/svg10.dtd">
<svg version="1.0" xmlns="http://www.w3.org/2000/svg"
 width="1696.000000pt" height="608.000000pt" viewBox="0 0 1696.000000 608.000000"
 preserveAspectRatio="xMidYMid meet">

<g transform="translate(0.000000,608.000000) scale(0.100000,-0.100000)"
fill="#000000" stroke="none">
<path d="M480 6075 c0 -2 12 -11 28 -19 15 -8 39 -26 54 -40 15 -14 31 -26 36
-26 8 0 141 -95 152 -109 3 -3 22 -15 43 -26 21 -11 55 -35 75 -54 20 -18 57
-47 82 -64 25 -17 50 -35 55 -39 52 -41 177 -128 183 -128 5 0 17 -8 28 -18
26 -24 183 -136 212 -151 29 -15 28 -22 -11 -73 -22 -28 -40 -42 -53 -41 -10
1 -13 0 -6 -3 17 -8 15 -33 -3 -40 -8 -4 -15 -11 -15 -16 0 -11 -61 -101 -73
-106 -4 -2 -7 -8 -7 -12 0 -5 -36 -60 -79 -122 -107 -152 -116 -165 -159 -224
-20 -28 -43 -60 -50 -70 -6 -10 -42 -62 -80 -114 -37 -52 -89 -128 -117 -168
-27 -40 -71 -103 -98 -140 -26 -37 -64 -92 -83 -122 -20 -30 -40 -57 -43 -60
-7 -5 -41 -53 -176 -250 -29 -41 -124 -178 -213 -305 l-162 -230 0 -1652 0
-1653 8480 0 8480 0 0 3040 0 3040 -8240 0 c-4532 0 -8240 -2 -8240 -5z
m11823 -1899 c374 -72 647 -400 647 -777 0 -54 -5 -121 -11 -149 -12 -57 -20
-58 -82 -17 l-32 21 -1 111 c0 132 -18 207 -76 325 -33 67 -58 101 -127 170
-150 148 -288 202 -511 199 -69 -1 -135 1 -147 4 -27 7 -83 36 -83 43 0 3 5 2
10 -1 6 -3 10 -4 10 0 0 3 -10 9 -22 14 -19 7 -15 11 36 30 111 41 259 52 389
27z m-7945 -308 l2 -246 -29 -7 c-37 -8 -81 3 -81 21 0 18 -9 18 -31 -2 -26
-23 -90 -29 -125 -11 -58 30 -78 62 -82 131 -5 82 10 128 56 166 29 24 46 30
84 30 26 0 58 -4 72 -10 l26 -10 0 89 c0 48 3 91 7 95 4 4 28 6 53 4 l45 -3 3
-247z m1212 2 l0 -250 -55 0 c-42 0 -55 3 -55 15 0 12 -6 12 -37 -5 -49 -26
-86 -25 -135 2 -52 29 -68 63 -68 138 0 115 55 180 150 180 36 0 60 -6 72 -17
21 -19 20 -23 18 94 -1 40 2 77 5 83 3 5 28 10 56 10 l49 0 0 -250z m-4615
207 c53 -28 92 -79 110 -140 36 -125 -22 -258 -130 -302 -33 -13 -245 -28
-270 -19 -13 5 -15 40 -15 238 0 128 3 236 8 240 4 4 66 6 137 4 95 -3 138 -9
160 -21z m1987 11 c8 -7 18 -22 21 -33 3 -11 29 -87 57 -170 29 -82 60 -176
70 -207 l18 -57 -34 -7 c-60 -11 -81 1 -99 56 l-17 51 -80 -3 -80 -3 -15 -45
c-9 -25 -20 -48 -27 -52 -19 -13 -96 -9 -101 5 -3 6 4 37 16 67 11 30 38 107
60 170 22 63 47 133 56 155 8 22 19 50 24 63 7 19 16 22 62 22 29 0 60 -6 69
-12z m9088 -132 c0 -2 3 -12 7 -21 5 -15 1 -17 -30 -13 -19 2 -33 0 -31 -4 7
-11 -8 -10 -26 2 -12 7 -7 12 20 24 35 15 60 20 60 12z m-10790 -112 c0 -119
8 -144 48 -144 52 0 57 10 60 135 l4 116 51 -3 52 -3 3 -157 c2 -144 1 -158
-16 -167 -27 -14 -102 -2 -95 15 8 20 -10 17 -38 -7 -20 -17 -32 -20 -73 -15
-89 10 -106 44 -106 213 l0 123 55 0 55 0 0 -106z m399 -9 c38 -123 35 -124
73 20 l25 90 48 3 c26 2 52 -1 57 -6 8 -8 -29 -124 -64 -202 -18 -41 -26 -63
-34 -90 -4 -14 -12 -28 -18 -32 -18 -13 -103 -9 -114 5 -9 11 -122 309 -122
323 0 3 26 4 57 2 l57 -3 35 -110z m500 77 c30 -29 41 -47 46 -84 4 -26 4 -51
0 -57 -4 -7 -46 -11 -106 -11 -90 0 -99 -2 -99 -19 0 -32 25 -43 87 -39 32 2
65 6 73 9 11 3 16 -6 18 -33 4 -49 -20 -62 -119 -63 -67 0 -79 3 -111 27 -69
52 -88 147 -45 223 31 55 87 85 159 85 52 0 60 -3 97 -38z m211 23 c0 -8 4
-15 9 -15 5 0 14 7 21 15 7 8 28 15 46 15 33 0 34 -1 34 -43 0 -48 -7 -62 -25
-47 -18 15 -50 1 -68 -30 -13 -21 -17 -52 -17 -118 l0 -90 -30 -7 c-16 -4 -43
-4 -60 0 l-30 7 0 157 c0 87 3 161 7 164 3 4 30 7 60 7 40 0 53 -4 53 -15z
m904 -1 c6 -15 8 -15 31 0 13 9 38 16 54 16 34 0 46 -23 36 -70 -6 -25 -9 -28
-25 -20 -26 14 -34 13 -60 -10 -26 -23 -39 -77 -40 -167 0 -58 -2 -63 -24 -69
-13 -3 -35 -4 -47 -2 -24 3 -24 3 -27 171 l-2 167 49 0 c36 0 51 -4 55 -16z
m266 1 c0 -8 4 -15 9 -15 5 0 14 7 21 15 7 8 28 15 47 15 34 0 34 0 31 -42 -3
-39 -5 -43 -30 -43 -15 -1 -39 -12 -53 -25 -23 -22 -25 -30 -25 -121 0 -106
-2 -109 -64 -109 -18 0 -37 5 -44 12 -13 13 -18 309 -5 321 3 4 30 7 60 7 40
0 53 -4 53 -15z m397 -11 c43 -33 65 -76 61 -122 l-3 -37 -107 -3 c-115 -3
-129 -10 -87 -47 22 -21 73 -25 127 -11 l33 8 -3 -38 c-4 -51 -32 -66 -119
-62 -55 3 -73 9 -104 32 -20 16 -44 45 -52 65 -20 47 -13 133 14 169 54 72
175 96 240 46z m800 -9 c52 -45 67 -82 60 -150 -10 -95 -81 -155 -183 -155
-137 0 -223 132 -162 250 33 64 82 90 174 90 66 0 73 -2 111 -35z m230 15 l5
-20 33 20 c20 12 50 20 78 20 41 0 49 -4 74 -37 27 -35 28 -42 32 -165 l3
-129 -57 3 -57 3 -1 106 c-2 114 -11 139 -52 139 -41 0 -59 -44 -61 -146 -1
-50 -4 -96 -8 -103 -7 -11 -63 -15 -88 -6 -11 5 -15 128 -8 328 0 4 23 7 51 7
43 0 52 -3 56 -20z m963 1 c69 -42 93 -105 74 -200 -20 -100 -169 -153 -274
-97 -55 29 -80 74 -80 143 0 83 16 113 81 152 46 28 155 29 199 2z m6635 -168
c-3 -32 -8 -73 -11 -92 l-6 -35 -21 34 -21 33 -124 -129 c-71 -73 -127 -124
-129 -116 -3 6 -9 10 -14 6 -33 -20 14 49 89 131 21 22 57 64 81 93 l44 53
-32 12 c-17 6 -31 14 -31 17 0 6 136 47 163 49 17 1 18 -5 12 -56z m723 -230
l2 -193 -45 0 -45 0 0 188 c0 104 3 192 7 196 4 4 23 6 43 4 l35 -3 3 -192z
m299 75 l98 -122 3 122 3 122 39 0 40 0 0 -195 0 -195 -34 0 c-31 0 -41 9
-132 123 l-99 122 -3 -122 -3 -123 -39 0 -40 0 0 195 0 195 35 0 c32 0 41 -8
132 -122z m549 100 c49 -24 52 -33 25 -65 l-19 -22 -51 22 c-48 20 -54 20 -79
6 -51 -28 -36 -51 53 -81 101 -34 129 -62 122 -125 -2 -24 -13 -53 -23 -64
-23 -26 -78 -49 -115 -49 -37 0 -119 28 -141 48 -22 18 -22 31 -3 56 15 20 16
20 60 -2 58 -28 120 -29 135 -3 15 28 -7 45 -89 70 -83 25 -111 54 -111 113 0
22 5 48 11 59 31 59 144 78 225 37z m254 -173 l0 -195 -40 0 -40 0 0 195 0
195 40 0 40 0 0 -195z m413 182 c18 -8 38 -21 46 -31 12 -14 11 -20 -8 -40
-21 -22 -24 -23 -52 -9 -40 20 -111 19 -144 -3 -29 -19 -55 -69 -55 -105 0
-35 31 -89 61 -104 62 -33 149 -9 149 40 0 21 -5 24 -47 27 -46 3 -48 4 -51
35 -3 29 -1 32 30 35 18 2 57 1 86 0 l52 -4 0 -88 0 -89 -57 -26 c-99 -47
-200 -25 -267 58 -29 36 -31 44 -31 117 0 72 2 81 31 117 46 57 98 83 167 83
32 0 72 -6 90 -13z m268 -9 c0 -13 1 -48 2 -78 l2 -55 88 -3 87 -3 0 81 0 80
40 0 40 0 0 -195 0 -195 -40 0 -40 0 0 75 0 75 -90 0 -90 0 0 -75 0 -75 -40 0
-40 0 0 195 0 195 40 0 c35 0 40 -3 41 -22z m679 -18 l0 -40 -60 0 -60 0 0
-155 0 -155 -45 0 -44 0 2 155 2 154 -55 3 c-49 3 -55 6 -58 26 -7 51 -4 52
163 52 l155 0 0 -40z m-3180 -197 c0 -38 -3 -159 -7 -270 l-6 -201 -26 5 c-14
2 -28 7 -31 11 -3 4 -15 12 -27 19 -17 10 -23 10 -26 0 -3 -7 -6 33 -6 88 -1
55 -4 171 -8 258 l-6 157 71 0 72 0 0 -67z m-8272 -277 c-2 -24 -6 -42 -10
-39 -12 7 -9 83 2 83 6 0 10 -18 8 -44z m1659 -33 c-2 -16 -4 -3 -4 27 0 30 2
43 4 28 2 -16 2 -40 0 -55z m-2857 52 c0 -8 -4 -15 -10 -15 -5 0 -10 7 -10 15
0 8 5 15 10 15 6 0 10 -7 10 -15z m-2299 -27 c29 -33 33 -43 29 -87 -3 -32
-19 -75 -26 -69 -2 3 0 17 7 31 15 33 5 87 -22 115 -14 16 -31 22 -64 22 l-45
0 0 -96 0 -96 49 4 c40 2 47 0 39 -10 -7 -8 -28 -12 -57 -10 l-46 3 -3 107
c-3 118 -5 115 71 117 31 1 44 -5 68 -31z m1000 -141 c-10 -10 -14 151 -3 167
4 6 8 -27 10 -73 2 -46 -1 -88 -7 -94z m939 64 c0 -63 -4 -112 -10 -116 -6 -4
-10 35 -10 109 0 71 4 116 10 116 6 0 10 -43 10 -109z m1115 99 c4 -6 -15 -10
-50 -10 -35 0 -54 4 -50 10 3 6 26 10 50 10 24 0 47 -4 50 -10z m966 -115 c7
-7 20 2 39 25 16 19 31 32 34 30 3 -3 -6 -19 -19 -34 -31 -37 -31 -47 1 -86
37 -43 25 -47 -15 -5 -34 36 -51 38 -51 5 0 -10 -4 -22 -10 -25 -12 -7 -13 84
-2 165 l7 55 3 -60 c2 -33 8 -64 13 -70z m-3141 -63 c13 -20 22 -23 58 -20 36
3 40 1 25 -9 -26 -20 -59 -15 -87 11 -24 22 -26 29 -24 112 l1 89 7 -80 c3
-44 13 -90 20 -103z m224 138 c14 -22 30 -40 35 -40 5 0 20 18 35 40 14 22 28
40 31 40 7 0 -7 -33 -27 -62 -24 -35 -23 -51 8 -106 24 -44 16 -38 -28 20
l-18 23 -20 -24 c-25 -29 -38 -21 -16 11 22 31 20 43 -14 94 -17 24 -27 44
-22 44 5 0 21 -18 36 -40z m346 36 c0 -2 3 -12 6 -21 5 -12 2 -16 -12 -13 -13
2 -24 -8 -37 -36 -23 -49 -17 -66 27 -66 41 0 51 12 36 40 -6 12 -9 29 -7 38
3 12 6 8 12 -13 4 -16 19 -53 32 -82 26 -59 27 -63 12 -63 -5 0 -15 13 -20 29
-8 24 -17 29 -53 34 -23 3 -53 3 -66 0 -20 -5 -22 -3 -16 13 5 10 17 44 28 74
11 30 22 58 25 63 4 7 33 10 33 3z m1694 -23 c3 -16 4 -39 2 -53 -2 -14 -4
-49 -5 -77 0 -29 -5 -53 -11 -53 -6 0 -10 42 -10 105 0 99 12 138 24 78z m166
23 c0 -2 -18 -6 -40 -8 -22 -2 -40 0 -40 4 0 5 18 8 40 8 22 0 40 -2 40 -4z
m-3027 -36 c3 -11 13 -20 24 -21 16 0 15 -1 -3 -9 -18 -7 -22 -17 -23 -65 -1
-49 2 -58 19 -62 23 -6 27 -23 5 -23 -31 0 -50 74 -46 178 1 27 17 29 24 2z
m1935 -20 c12 0 10 -4 -7 -13 -13 -6 -23 -15 -22 -19 0 -5 1 -31 1 -58 0 -43
3 -52 23 -60 21 -8 21 -9 2 -9 -33 -1 -45 19 -45 79 0 31 -6 62 -12 69 -10 11
-10 14 0 18 6 3 12 12 12 21 0 13 4 11 16 -6 8 -12 23 -22 32 -22z m702 11
c-15 -29 -12 -93 6 -119 8 -12 11 -22 6 -22 -17 0 -42 48 -42 79 0 34 19 81
32 81 5 0 4 -9 -2 -19z m324 -37 c8 -8 19 -14 24 -14 5 0 21 -9 36 -21 26 -20
34 -53 17 -63 -5 -4 -7 2 -4 13 5 21 -31 61 -55 61 -15 0 -62 45 -62 59 0 19
15 20 22 1 4 -12 14 -28 22 -36z m-784 17 c0 -5 -11 -6 -25 -3 -40 7 -75 -22
-77 -66 l-1 -37 -4 33 c-6 46 18 80 59 84 36 4 48 1 48 -11z m10093 -9 c3 -9
24 -59 46 -110 46 -105 46 -102 27 -102 -7 0 -19 14 -26 30 -12 29 -15 30 -75
30 -60 0 -63 -1 -75 -30 -11 -25 -40 -43 -40 -24 0 10 80 187 96 211 15 24 39
22 47 -5z m397 -92 c0 -92 -3 -120 -13 -120 -7 0 -42 39 -77 87 l-65 87 -3
-87 c-2 -68 -6 -87 -17 -87 -12 0 -15 21 -15 115 0 91 3 115 14 115 7 0 42
-37 77 -82 l64 -83 3 75 c3 83 6 100 22 100 6 0 10 -44 10 -120z m748 64 c17
-27 36 -50 41 -52 5 -2 23 20 40 48 21 33 37 50 51 50 18 0 15 -8 -25 -67 -38
-57 -45 -76 -45 -115 0 -68 -26 -66 -35 2 -5 34 -20 69 -46 108 -21 31 -39 63
-39 70 0 25 25 6 58 -44z m419 33 c-2 -7 -20 -13 -40 -15 l-37 -3 0 -100 c0
-81 -3 -99 -15 -99 -12 0 -15 18 -15 100 l0 100 -34 0 c-34 0 -52 12 -43 28 8
13 189 2 184 -11z m455 -1 c38 -23 12 -42 -28 -21 -42 22 -62 19 -95 -14 -38
-38 -40 -91 -4 -126 28 -29 79 -33 112 -10 28 20 45 -2 17 -22 -76 -55 -184
-3 -184 89 0 100 99 156 182 104z m272 -6 c17 -17 -9 -36 -28 -21 -8 7 -30 11
-48 9 -25 -2 -34 -8 -36 -24 -3 -18 6 -24 55 -40 46 -15 60 -25 68 -47 24 -71
-80 -114 -149 -62 -31 23 -7 39 30 20 37 -19 68 -19 85 1 19 23 0 46 -51 61
-59 17 -72 30 -68 72 3 31 8 37 38 47 35 12 84 4 104 -16z m-14656 8 c14 -14
16 -117 2 -138 -11 -17 -13 -11 -14 40 -1 43 -26 51 -67 21 -38 -28 -48 -26
-19 4 13 14 33 25 44 25 12 0 27 4 35 9 22 14 -3 39 -42 44 -28 3 -27 4 9 5
22 1 45 -3 52 -10z m245 5 c-13 -2 -33 -2 -45 0 -13 2 -3 4 22 4 25 0 35 -2
23 -4z m1250 -15 c17 -28 23 -138 8 -138 -6 0 -11 21 -11 49 0 61 -13 98 -37
104 -14 4 -14 5 4 6 14 1 28 -8 36 -21z m165 10 c15 -15 16 -138 2 -138 -5 0
-10 15 -10 34 0 39 -18 50 -56 36 -20 -8 -25 -16 -22 -38 2 -23 7 -27 31 -25
15 1 27 -2 27 -8 0 -5 -11 -9 -25 -9 -25 0 -65 31 -65 50 0 15 61 50 87 50 28
0 38 17 22 36 -8 10 -24 14 -45 12 -18 -2 -30 0 -28 4 8 12 69 9 82 -4z m171
-48 c10 -45 7 -70 -4 -34 -4 10 -13 33 -20 50 -8 18 -11 35 -8 38 11 11 21 -7
32 -54z m101 56 c0 -10 -31 -76 -36 -76 -6 0 5 59 13 73 4 7 23 10 23 3z m170
-71 c0 -43 -4 -75 -10 -75 -6 0 -10 32 -10 75 0 43 4 75 10 75 6 0 10 -32 10
-75z m300 67 c0 -5 -13 -7 -29 -4 -16 2 -32 -1 -35 -7 -14 -21 5 -52 35 -58
22 -4 29 -11 29 -29 0 -13 -4 -24 -10 -24 -5 0 -10 6 -10 14 0 8 -14 23 -30
33 -57 33 -47 83 16 83 19 0 34 -4 34 -8z m967 2 c-3 -3 -12 -4 -19 -1 -8 3
-5 6 6 6 11 1 17 -2 13 -5z m212 -15 c12 -12 20 -28 17 -36 -3 -8 -6 -32 -6
-54 0 -30 -3 -37 -15 -33 -10 4 -13 14 -9 31 7 25 -7 42 -32 43 -23 0 -55 -41
-49 -63 5 -17 4 -19 -4 -7 -26 37 6 80 60 80 14 0 29 3 32 6 14 14 -15 43 -46
47 l-32 4 31 1 c19 1 39 -6 53 -19z m176 11 c-3 -5 -12 -7 -20 -3 -21 7 -19
13 6 13 11 0 18 -4 14 -10z m258 0 c-26 -10 -43 -40 -43 -72 1 -26 22 -58 39
-58 6 0 11 -4 11 -10 0 -33 -56 15 -64 55 -8 40 25 95 56 94 l23 0 -22 -9z
m67 -200 c-18 -26 -28 -30 -66 -30 -24 0 -44 5 -44 10 0 6 20 10 44 10 39 0
45 3 56 30 7 18 11 59 8 105 -2 45 1 76 7 78 6 2 11 -30 13 -85 2 -77 0 -93
-18 -118z m267 204 c-3 -3 -12 -4 -19 -1 -8 3 -5 6 6 6 11 1 17 -2 13 -5z m64
-32 c34 -88 -77 -168 -130 -94 -11 16 -19 38 -18 50 2 29 17 28 17 0 1 -37 24
-58 62 -58 20 0 41 7 48 15 17 21 6 93 -17 110 -17 13 -16 14 5 8 13 -3 28
-17 33 -31z m69 -25 c0 -57 5 -68 35 -85 20 -11 20 -11 -2 -12 -34 0 -53 37
-53 103 0 36 4 56 10 52 6 -3 10 -30 10 -58z m112 6 c5 -64 -2 -96 -17 -85
-12 8 -7 142 5 142 4 0 10 -26 12 -57z m170 45 c18 -15 30 -109 17 -130 -5 -8
-9 9 -9 43 0 42 -5 61 -20 77 -22 24 -14 30 12 10z m8299 -98 c26 -58 48 -108
48 -112 2 -21 -30 -4 -44 22 -15 28 -19 30 -74 30 -56 0 -59 -1 -71 -30 -11
-27 -40 -42 -40 -21 0 5 22 57 50 116 37 80 54 106 66 103 11 -2 36 -44 65
-108z m193 88 c3 -13 6 -58 6 -100 l0 -78 60 0 c47 0 60 -3 60 -15 0 -12 -16
-15 -80 -15 l-80 0 0 115 c0 91 3 115 14 115 7 0 16 -10 20 -22z m826 -93 c0
-96 -3 -115 -15 -115 -12 0 -15 19 -15 115 0 96 3 115 15 115 12 0 15 -19 15
-115z m-12678 34 c-2 -35 -6 -66 -8 -68 -12 -12 -17 19 -15 92 1 34 5 47 14
44 8 -2 11 -23 9 -68z m1913 41 c-18 -34 -19 -62 -4 -77 11 -11 5 -33 -10 -33
-9 0 -14 117 -5 131 3 5 12 9 20 9 13 0 13 -4 -1 -30z m115 -33 c0 -40 -35
-87 -65 -87 -33 0 -39 15 -8 18 45 4 56 21 51 79 -4 44 -3 50 8 35 8 -9 14
-30 14 -45z m756 41 c-3 -13 -6 -34 -7 -48 -1 -16 -4 -11 -8 15 -8 44 -5 55
11 55 6 0 8 -10 4 -22z m494 -42 c0 -36 -4 -67 -9 -70 -16 -10 -30 112 -14
127 17 17 23 2 23 -57z m-1018 9 c-6 -55 9 -75 54 -75 19 0 34 -4 34 -10 0 -5
-15 -10 -34 -10 -26 0 -39 7 -54 28 -19 26 -23 76 -8 100 12 20 14 14 8 -33z
m1308 -20 c0 -53 -3 -63 -15 -59 -11 5 -12 11 -4 26 6 10 10 34 9 51 -2 39 -1
47 5 47 3 0 5 -29 5 -65z m-2405 35 c3 -5 -1 -10 -10 -10 -9 0 -13 5 -10 10 3
6 8 10 10 10 2 0 7 -4 10 -10z m315 -30 c0 -48 -7 -51 -18 -8 -5 22 -16 35
-33 39 -20 6 -18 7 14 8 37 1 37 1 37 -39z m-2407 0 c-3 -11 -9 -20 -14 -20
-5 0 -9 -7 -9 -17 0 -9 -3 -14 -6 -10 -9 8 16 78 26 72 4 -3 6 -14 3 -25z
m-185 -22 c-2 -24 -9 -43 -17 -46 -11 -4 -12 3 -7 31 5 28 3 38 -11 46 -16 9
-14 10 10 11 27 0 28 -2 25 -42z m-87 -35 c22 -6 26 -23 4 -23 -20 0 -49 46
-38 62 6 9 9 6 11 -11 2 -13 12 -26 23 -28z m1686 25 c-3 -8 -6 -5 -6 6 -1 11
2 17 5 13 3 -3 4 -12 1 -19z m3009 -28 c13 0 24 -4 24 -10 0 -15 -33 -12 -58
6 -12 8 -22 23 -22 32 0 13 3 12 16 -6 8 -12 26 -22 40 -22z m-4964 0 c10 0
18 -4 18 -10 0 -19 -39 -10 -51 13 -9 18 -9 20 2 10 7 -7 21 -13 31 -13z m968
11 c0 -12 -20 -25 -27 -18 -7 7 6 27 18 27 5 0 9 -4 9 -9z m270 -7 c0 -8 -5
-12 -10 -9 -6 4 -8 11 -5 16 9 14 15 11 15 -7z m3010 1 c0 -8 -4 -15 -10 -15
-5 0 -10 7 -10 15 0 8 5 15 10 15 6 0 10 -7 10 -15z m-2311 -27 c-5 -17 -12
-34 -17 -37 -5 -3 -11 -14 -15 -23 -4 -11 -16 -18 -29 -17 -15 0 -18 3 -8 6
20 7 50 44 50 64 0 12 18 39 26 39 2 0 -1 -14 -7 -32z m357 11 c9 -15 -23 -10
-35 5 -10 12 -8 13 9 9 11 -3 23 -9 26 -14z m639 2 c-7 -13 -105 -15 -105 -2
0 4 23 6 50 3 37 -3 50 -1 50 8 0 8 3 11 6 7 3 -3 3 -10 -1 -16z m-2432 -19
c-3 -12 -9 -22 -14 -22 -12 0 -11 7 3 30 15 24 19 21 11 -8z m1837 24 c0 -2
-7 -6 -15 -10 -8 -3 -15 -1 -15 4 0 6 7 10 15 10 8 0 15 -2 15 -4z m110 -6 c0
-5 -13 -10 -29 -10 -17 0 -33 5 -36 10 -4 6 8 10 29 10 20 0 36 -4 36 -10z
m730 -2 c0 -5 -20 -8 -45 -8 -25 0 -45 5 -45 10 0 6 19 10 45 8 25 -2 45 -6
45 -10z m-708 -335 c37 -33 14 -73 -54 -91 l-38 -10 0 53 c0 51 1 54 28 58 15
2 31 5 36 6 5 0 18 -6 28 -16z m2108 -1 c0 -4 -18 -7 -40 -7 -48 0 -53 12 -7
17 34 4 47 1 47 -10z m-4750 -7 c9 -10 9 -15 1 -15 -6 0 -11 5 -11 11 0 8 -14
10 -40 6 -22 -3 -43 -1 -46 4 -9 16 83 10 96 -6z m297 -22 c-3 -10 -5 -4 -5
12 0 17 2 24 5 18 2 -7 2 -21 0 -30z m793 29 c0 -4 -16 -6 -35 -4 -19 2 -35 6
-35 8 0 2 16 4 35 4 19 0 35 -4 35 -8z m115 -2 c-27 -12 -43 -12 -25 0 8 5 22
9 30 9 10 0 8 -3 -5 -9z m60 0 c3 -6 -1 -7 -9 -4 -18 7 -21 14 -7 14 6 0 13
-4 16 -10z m549 -15 c12 -18 13 -31 7 -49 -11 -28 -23 -37 -65 -45 -24 -5 -32
-13 -37 -36 -4 -18 -7 9 -8 63 l-1 92 44 0 c35 0 47 -5 60 -25z m916 -7 c0
-17 -3 -28 -7 -24 -9 9 -13 38 -7 48 10 15 14 8 14 -24z m358 12 c2 -10 -5
-16 -18 -16 -13 0 -20 7 -20 19 0 22 33 20 38 -3z m307 1 c9 -28 -11 -71 -34
-71 -40 0 -51 -11 -51 -50 0 -33 3 -38 26 -43 39 -7 67 24 54 59 -8 20 -7 25
2 22 7 -3 14 -17 16 -32 5 -40 -23 -66 -70 -66 l-38 0 0 100 0 100 44 0 c35 0
46 -4 51 -19z m225 10 c-24 -6 -25 -11 -30 -96 -6 -109 -18 -102 -17 10 l0 80
-34 6 c-24 4 -13 6 36 7 43 0 60 -3 45 -7z m2226 -61 c4 -11 16 -3 45 30 21
25 39 40 39 34 0 -5 -13 -23 -30 -39 -37 -35 -37 -46 -2 -87 15 -18 34 -42 42
-52 14 -18 14 -19 -7 -8 -12 7 -31 25 -43 42 -30 42 -50 39 -51 -7 l-2 -38 -6
35 c-3 19 -4 64 -2 100 3 36 7 52 8 35 2 -16 6 -37 9 -45z m196 63 c-32 -4
-33 -6 -30 -46 3 -37 6 -42 30 -45 31 -4 53 26 43 58 -4 11 -2 20 4 20 19 0
22 -19 7 -55 -13 -31 -19 -35 -50 -35 -35 0 -36 -1 -36 -40 0 -22 -5 -40 -11
-40 -10 0 -12 165 -2 183 2 4 21 6 41 5 l37 -1 -33 -4z m-4669 -52 c2 -23 0
-44 -5 -47 -4 -3 -8 18 -8 47 0 61 8 61 13 0z m3617 39 c0 -5 -4 -10 -10 -10
-5 0 -10 5 -10 10 0 6 5 10 10 10 6 0 10 -4 10 -10z m1175 -52 c-4 -109 -5
-118 -15 -118 -6 0 -8 34 -6 88 4 98 3 92 14 92 5 0 8 -28 7 -62z m-5932 12
c8 0 8 -3 -1 -12 -19 -19 -15 -98 6 -114 14 -11 15 -13 2 -14 -27 0 -40 22
-40 71 0 46 -17 68 -41 53 -5 -3 -9 0 -9 5 0 6 14 11 30 11 24 0 30 4 31 23
l2 22 4 -22 c2 -13 9 -23 16 -23z m4414 12 c-50 -55 14 -159 84 -137 11 4 19
2 19 -4 0 -6 -17 -11 -39 -11 -58 0 -91 35 -91 96 0 43 24 93 38 79 3 -3 -2
-13 -11 -23z m-3634 -4 c7 -25 3 -33 -12 -23 -13 8 -15 45 -2 45 5 0 11 -10
14 -22z m291 6 c10 -26 7 -99 -5 -111 -17 -17 -6 -47 21 -54 23 -6 22 -7 -7
-8 -18 -1 -33 4 -33 9 0 6 -21 11 -47 11 -27 1 -39 3 -28 6 46 10 73 26 84 49
14 31 14 69 1 95 -6 11 -7 19 -1 19 5 0 12 -7 15 -16z m2653 -14 c14 0 14 -2
0 -18 -22 -24 -23 -90 -2 -98 19 -8 20 -24 1 -24 -22 0 -30 19 -27 72 1 28 -2
48 -8 48 -7 0 -6 10 2 27 9 20 13 23 15 10 2 -9 11 -17 19 -17z m1463 15 c0
-9 9 -15 23 -16 l22 0 -22 -9 c-20 -8 -23 -17 -23 -58 0 -41 4 -51 23 -60 l22
-11 -22 0 c-12 -1 -26 7 -32 17 -8 16 -15 93 -12 135 1 21 21 23 21 2z m-430
-69 c0 -42 -5 -78 -11 -81 -7 -5 -9 19 -8 74 2 102 19 107 19 7z m-1943 52
c-20 -56 -20 -58 15 -58 19 0 39 5 45 11 7 7 14 2 21 -20 7 -19 7 -33 1 -36
-5 -4 -9 1 -9 10 0 14 -9 16 -55 13 -30 -1 -55 -1 -55 2 0 10 33 90 37 90 3 0
3 -6 0 -12z m-3027 -8 c0 -5 -2 -10 -4 -10 -3 0 -8 5 -11 10 -3 6 -1 10 4 10
6 0 11 -4 11 -10z m53 -30 l6 -35 -15 28 c-8 15 -12 32 -8 38 8 14 10 10 17
-31z m236 -29 c1 -33 -3 -62 -9 -66 -6 -4 -10 19 -10 65 0 85 16 86 19 1z m85
44 c19 -30 22 -109 4 -103 -8 3 -14 26 -16 55 -2 40 -7 52 -25 61 l-22 11 21
0 c13 1 29 -10 38 -24z m158 8 c21 -19 24 -71 6 -96 -22 -27 -61 -31 -91 -7
-26 21 -37 60 -17 60 6 0 10 -8 10 -18 0 -28 35 -55 59 -47 29 9 42 37 35 74
-8 41 -38 49 -75 22 -32 -24 -38 -18 -12 11 20 22 61 23 85 1z m178 -16 c13
-38 13 -68 -1 -87 -7 -11 -9 -7 -8 20 3 40 -8 80 -22 80 -5 0 -9 4 -9 8 0 22
30 5 40 -21z m441 -73 c6 -8 10 -17 7 -20 -7 -7 -36 39 -38 62 -5 49 3 65 10
21 5 -27 14 -55 21 -63z m780 96 c14 -8 19 -21 19 -55 0 -51 -19 -75 -58 -75
-48 1 -81 45 -67 90 10 32 27 24 20 -9 -13 -62 45 -98 79 -49 29 41 14 83 -34
101 -12 4 -11 6 3 6 10 1 27 -4 38 -9z m78 -45 c2 -28 21 -54 28 -37 2 6 9 12
14 12 5 0 2 -14 -7 -31 -8 -17 -19 -27 -23 -23 -8 10 -31 108 -30 127 1 18 17
-25 18 -48z m90 10 c6 -25 16 -45 21 -45 6 0 15 20 22 44 6 25 16 42 20 40 9
-6 6 -25 -19 -92 -17 -49 -23 -46 -43 16 -9 30 -18 41 -28 37 -10 -4 -12 0 -8
11 3 8 6 20 6 25 0 5 4 9 9 9 5 0 14 -20 20 -45z m197 28 c7 -10 14 -28 14
-40 0 -21 -5 -23 -49 -23 -39 0 -51 -4 -54 -17 -3 -10 -5 -1 -6 19 l-1 37 28
-16 c34 -19 62 -12 62 16 0 26 -43 39 -68 20 -15 -13 -16 -12 -3 4 7 9 25 17
39 17 13 0 31 -8 38 -17z m1426 0 c10 -9 18 -27 18 -40 0 -21 -5 -23 -43 -23
-24 0 -48 -5 -55 -12 -9 -9 -12 -4 -12 23 0 23 3 30 9 20 13 -21 84 -20 89 1
5 26 -34 43 -66 28 -22 -10 -24 -9 -12 4 16 21 49 20 72 -1z m128 8 c0 -5 -8
-7 -18 -4 -21 5 -47 -21 -37 -37 4 -6 18 -15 31 -20 30 -12 40 -35 24 -55 -14
-17 -66 -20 -75 -5 -4 6 6 9 26 8 44 -4 52 25 12 44 -31 15 -41 42 -23 63 14
16 60 21 60 6z m160 -61 c0 -32 -4 -62 -10 -65 -6 -4 -10 20 -10 65 0 45 4 69
10 65 6 -3 10 -33 10 -65z m159 56 c13 -16 13 -126 -1 -126 -4 0 -8 24 -8 54
0 45 -4 58 -22 70 -22 16 -22 16 -1 16 11 0 26 -6 32 -14z m94 -6 c-27 -16
-33 -26 -33 -54 0 -28 5 -36 33 -50 l32 -16 -27 0 c-32 0 -48 24 -48 69 0 34
30 71 58 71 11 0 6 -7 -15 -20z m553 4 c-15 -15 -20 -39 -17 -76 1 -10 -3 -18
-8 -18 -6 0 -11 15 -11 33 0 33 23 77 41 77 6 0 3 -7 -5 -16z m238 0 c18 -17
22 -109 6 -119 -6 -4 -10 13 -10 44 0 52 -21 87 -46 77 -8 -3 -14 -1 -14 4 0
16 47 11 64 -6z m146 5 c0 -6 -8 -8 -20 -4 -37 12 -60 -11 -60 -60 0 -41 3
-45 28 -51 45 -10 48 -12 18 -13 -40 -1 -66 25 -66 65 0 45 26 74 67 74 18 0
33 -5 33 -11z m307 5 c-3 -3 -12 -4 -19 -1 -8 3 -5 6 6 6 11 1 17 -2 13 -5z
m746 -1 c-13 -2 -30 -14 -38 -26 -11 -15 -15 -17 -15 -6 0 23 21 39 50 38 23
-2 23 -2 3 -6z m-5620 -10 c-7 -2 -13 -17 -14 -31 l-1 -27 -7 25 c-7 24 3 40
24 39 6 0 4 -3 -2 -6z m1734 -15 c-3 -8 -6 -5 -6 6 -1 11 2 17 5 13 3 -3 4
-12 1 -19z m1734 9 c-6 -6 -11 -30 -11 -53 0 -24 -4 -46 -10 -49 -6 -4 -10 16
-10 52 0 53 2 59 21 60 17 2 19 -1 10 -10z m239 -34 c0 -25 -2 -44 -4 -42 -8
10 -13 89 -5 89 5 0 9 -21 9 -47z m962 -18 c-5 -88 -27 -88 -28 0 -1 54 1 65
15 65 13 0 15 -10 13 -65z m-404 31 c11 -24 6 -66 -8 -66 -4 0 -5 11 -3 24 3
13 0 33 -6 45 -7 11 -8 21 -3 21 5 0 14 -11 20 -24z m332 5 c7 -14 7 -28 -2
-48 l-13 -27 -5 39 c-8 56 0 71 20 36z m281 -28 c52 -10 34 -73 -22 -73 -15 0
-29 6 -32 13 -3 9 4 12 28 9 39 -5 58 16 30 32 -34 20 -56 46 -48 59 5 8 9 4
11 -11 3 -16 12 -25 33 -29z m-5531 25 c0 -5 -11 -8 -24 -8 -44 0 -56 -10 -57
-49 -1 -35 -2 -35 -9 9 -4 25 -6 47 -5 50 5 8 95 6 95 -2z m1060 2 c0 -5 -4
-10 -9 -10 -6 0 -13 5 -16 10 -3 6 1 10 9 10 9 0 16 -4 16 -10z m1610 -42 c0
-20 -18 -5 -23 19 -5 26 -4 26 9 8 8 -10 14 -22 14 -27z m200 26 c0 -8 -5 -12
-10 -9 -6 4 -8 11 -5 16 9 14 15 11 15 -7z m1630 0 c0 -8 -5 -12 -10 -9 -6 4
-8 11 -5 16 9 14 15 11 15 -7z m-3630 -4 c0 -5 -4 -10 -10 -10 -5 0 -10 5 -10
10 0 6 5 10 10 10 6 0 10 -4 10 -10z m230 -29 c-1 -32 -26 -51 -66 -50 -21 1
-30 3 -19 6 72 15 68 12 62 49 -5 30 -4 34 8 24 8 -7 15 -20 15 -29z m480 29
c0 -5 -4 -10 -10 -10 -5 0 -10 5 -10 10 0 6 5 10 10 10 6 0 10 -4 10 -10z
m801 -50 c-10 -23 -11 -23 -9 10 2 42 12 63 16 35 2 -12 -2 -32 -7 -45z m3319
50 c0 -5 -4 -10 -10 -10 -5 0 -10 5 -10 10 0 6 5 10 10 10 6 0 10 -4 10 -10z
m-4326 -15 c3 -8 1 -15 -4 -15 -6 0 -10 7 -10 15 0 8 2 15 4 15 2 0 6 -7 10
-15z m1196 -14 c0 -36 24 -47 57 -25 28 18 36 15 27 -10 -5 -13 -17 -16 -53
-14 -45 3 -46 4 -49 41 -2 21 1 37 7 37 6 0 11 -13 11 -29z m3724 3 c9 -25 2
-26 -17 -4 -13 16 -14 20 -3 20 8 0 17 -7 20 -16z m-6178 -30 c-3 -9 -6 -22
-6 -30 0 -8 -3 -14 -7 -14 -5 0 -8 14 -8 30 0 19 5 30 14 30 8 0 11 -6 7 -16z
m1339 -19 c6 -2 -14 -4 -42 -4 -39 -1 -53 3 -53 13 0 11 8 12 43 5 23 -5 47
-11 52 -14z m841 -3 c-21 -2 -42 0 -47 5 -4 4 13 6 39 3 l47 -5 -39 -3z m1453
2 c2 -2 -12 -4 -32 -4 -20 0 -39 5 -42 11 -5 7 5 8 32 3 21 -4 40 -8 42 -10z
m1140 0 c2 -2 -10 -4 -27 -4 -17 0 -34 4 -37 10 -5 9 53 3 64 -6z m1396 6 c-3
-5 -16 -10 -28 -10 -18 0 -19 2 -7 10 20 13 43 13 35 0z m-1929 -16 c-3 -9 -6
-19 -6 -24 0 -4 -6 -10 -14 -13 -11 -5 -12 0 -3 24 6 16 15 29 20 29 5 0 6 -7
3 -16z m-4386 -358 c0 -3 -4 -8 -10 -11 -5 -3 -10 -1 -10 4 0 6 5 11 10 11 6
0 10 -2 10 -4z m500 -75 c0 -78 0 -79 -27 -84 -54 -10 -85 31 -64 86 7 19 20
29 41 33 21 5 30 12 30 25 0 11 5 19 10 19 6 0 10 -33 10 -79z m70 75 c0 -2
-7 -6 -15 -10 -8 -3 -15 -1 -15 4 0 6 7 10 15 10 8 0 15 -2 15 -4z m777 -7
c-9 -5 -22 -7 -27 -4 -6 3 -15 -6 -21 -22 -20 -54 -44 -102 -51 -103 -12 0 34
114 51 128 8 6 26 12 40 12 23 -1 24 -2 8 -11z m232 -35 c-17 -21 -21 -11 -8
22 10 23 13 25 16 11 3 -10 -1 -25 -8 -33z m1221 -33 c0 -78 0 -79 -27 -84
-15 -3 -38 -1 -51 4 -22 9 -24 14 -19 55 5 51 20 67 53 59 17 -4 23 1 28 20
11 44 16 27 16 -54z m782 -1 l3 -80 -46 0 c-48 0 -59 9 -59 51 0 32 30 69 56
69 17 0 24 6 24 20 0 11 4 20 9 20 5 0 11 -36 13 -80z m-3645 -42 c-2 -24 -4
-7 -4 37 0 44 2 63 4 43 2 -21 2 -57 0 -80z m1773 36 l0 -75 -47 3 c-41 3 -48
6 -54 29 -10 39 14 89 44 89 14 0 27 7 31 15 14 38 26 10 26 -61z m1502 -14
l-4 -61 -46 3 c-46 3 -47 4 -50 40 -4 52 12 78 49 78 18 0 32 6 36 17 11 29
18 -9 15 -77z m-3022 39 c0 -25 16 -24 30 1 11 21 40 28 40 10 0 -5 -7 -10
-15 -10 -38 0 -35 -57 4 -87 15 -11 15 -12 0 -13 -9 0 -24 9 -34 20 -14 16
-20 17 -27 8 -4 -8 -8 4 -8 29 0 23 -3 49 -7 59 -4 12 -3 15 5 10 7 -4 12 -16
12 -27z m3590 21 c12 -7 12 -12 2 -22 -6 -6 -12 -29 -12 -50 0 -29 4 -38 17
-38 13 0 14 -3 5 -12 -20 -20 -40 11 -42 62 -3 76 -1 80 30 60z m-3662 -12 c6
-8 8 -33 4 -63 l-7 -50 -5 50 c-4 38 -9 51 -24 53 -24 5 -36 -14 -36 -60 0
-21 -4 -38 -10 -38 -5 0 -10 24 -10 54 0 49 2 55 23 59 42 8 55 7 65 -5z m232
2 c-20 -13 -50 -13 -50 0 0 6 15 10 33 10 24 0 28 -3 17 -10z m339 -15 c4 -11
4 -38 0 -60 l-6 -40 -2 48 c-1 32 -6 49 -16 53 -20 8 -19 26 1 22 9 -2 20 -12
23 -23z m176 15 c3 -5 -3 -10 -14 -10 -11 0 -26 -7 -35 -15 -23 -23 -3 -73 32
-78 23 -3 24 -4 9 -11 -26 -12 -65 9 -73 38 -11 45 59 111 81 76z m125 -9 c23
-44 -3 -111 -43 -111 -40 0 -73 74 -44 99 10 8 13 2 14 -25 1 -43 14 -58 41
-50 38 13 32 86 -8 86 -11 0 -20 5 -20 10 0 18 49 11 60 -9z m96 8 c3 -5 -1
-9 -9 -9 -18 0 -27 -21 -27 -66 0 -19 -4 -34 -10 -34 -6 0 -10 26 -10 59 0 56
1 59 25 59 14 0 28 -4 31 -9z m94 -8 c5 -11 9 -35 8 -53 l-1 -33 -4 33 c-3 18
-13 38 -24 45 -23 14 -25 27 -4 27 8 0 19 -9 25 -19z m292 6 c11 -17 10 -47
-1 -47 -5 0 -13 9 -16 20 -8 24 -40 27 -49 4 -3 -9 -7 -32 -7 -52 -1 -35 -2
-35 -11 12 -5 27 -7 54 -5 60 6 15 80 18 89 3z m324 -87 c20 0 24 5 24 33 0
17 5 39 10 47 7 11 10 4 10 -27 0 -23 3 -48 6 -57 7 -18 -33 -31 -65 -21 -19
6 -21 14 -19 68 l2 62 3 -52 c4 -49 6 -53 29 -53z m159 35 c-11 -30 -24 -55
-31 -55 -13 0 -24 22 -24 48 0 15 2 15 10 2 9 -13 12 -12 25 4 8 11 15 27 15
36 0 18 11 33 18 25 3 -3 -3 -30 -13 -60z m117 48 c30 -27 22 -43 -22 -43 -22
0 -40 -5 -40 -11 0 -16 29 -41 39 -34 5 3 12 1 16 -5 9 -14 -48 -13 -63 2 -17
17 -15 55 6 83 20 29 39 31 64 8z m96 -1 c-24 -14 -28 -24 -28 -59 0 -24 -4
-43 -10 -43 -15 0 -13 107 3 113 6 3 23 6 37 6 l25 0 -27 -17z m201 -5 c7 -13
11 -39 9 -58 -3 -32 -5 -34 -43 -34 -36 0 -40 3 -43 28 -3 23 2 29 27 38 37
13 40 29 6 29 -14 0 -25 5 -25 10 0 6 13 10 28 10 20 0 33 -7 41 -23z m101 12
c0 -4 -9 -11 -20 -14 -16 -5 -20 -15 -20 -51 0 -24 -4 -44 -10 -44 -10 0 -14
102 -5 112 9 9 55 6 55 -3z m85 1 c-3 -5 -13 -10 -21 -10 -10 0 -14 -13 -14
-50 0 -38 -4 -50 -15 -50 -11 0 -15 11 -15 38 0 65 9 82 42 82 17 0 27 -4 23
-10z m102 -2 c-2 -7 2 -21 11 -30 14 -17 12 -18 -26 -18 -35 0 -42 -3 -42 -20
0 -13 9 -22 28 -26 46 -10 48 -12 11 -13 -42 -1 -62 17 -57 51 2 17 11 24 31
26 28 3 39 22 12 22 -8 0 -15 5 -15 10 0 6 12 10 26 10 16 0 24 -5 21 -12z
m264 2 c14 -8 19 -21 19 -48 0 -46 -8 -59 -41 -67 -35 -9 -59 16 -59 60 0 54
36 78 81 55z m141 -2 c10 -16 11 -114 1 -104 -4 4 -8 19 -9 34 -1 15 -2 35 -3
45 -1 13 -8 17 -23 15 -19 -2 -24 -11 -28 -47 -7 -61 -30 -67 -30 -8 0 25 2
51 5 59 7 17 76 22 87 6z m268 2 c42 -22 29 -105 -18 -117 -53 -13 -86 79 -40
111 26 19 33 19 58 6z m359 1 c9 -6 15 -27 15 -58 l1 -48 -40 0 c-36 0 -40 3
-43 28 -3 23 1 28 28 33 34 7 35 27 2 32 -12 2 -22 8 -22 13 0 12 41 12 59 0z
m199 -3 c15 -19 24 -81 14 -96 -6 -8 -23 -12 -43 -10 -30 3 -34 6 -34 33 0 22
5 30 23 35 29 6 30 24 2 28 -11 2 -18 8 -15 13 9 13 41 11 53 -3z m-3261 -53
c-13 -68 -27 -72 -27 -7 0 50 5 62 25 62 9 0 9 -14 2 -55z m713 -2 c0 -64 -11
-65 -16 -2 -3 38 1 59 12 59 2 0 4 -25 4 -57z m-780 -3 c0 -27 -4 -50 -10 -50
-11 0 -14 59 -4 84 10 27 14 18 14 -34z m559 -22 c1 -16 -3 -28 -9 -28 -6 0
-10 24 -9 53 1 41 3 47 9 27 4 -14 8 -37 9 -52z m775 56 c3 -8 2 -12 -4 -9 -6
3 -10 10 -10 16 0 14 7 11 14 -7z m-1907 -61 c-2 -16 -4 -5 -4 22 0 28 2 40 4
28 2 -13 2 -35 0 -50z m386 53 c4 -11 -4 -16 -31 -18 -50 -4 -49 -29 3 -44
l40 -12 -40 -1 c-48 -1 -65 12 -65 52 0 26 3 29 24 25 14 -3 31 -1 38 3 19 12
25 11 31 -5z m1170 -47 c-12 -38 -18 -48 -21 -33 -3 23 25 101 33 92 3 -2 -3
-29 -12 -59z m1902 21 c4 -6 -5 -10 -20 -10 -15 0 -24 4 -20 10 3 6 12 10 20
10 8 0 17 -4 20 -10z m-1202 -7 c-7 -2 -21 -2 -30 0 -10 3 -4 5 12 5 17 0 24
-2 18 -5z m-1488 -31 c0 -18 -20 -15 -23 4 -3 10 1 15 10 12 7 -3 13 -10 13
-16z m483 -22 c-14 -22 -24 -19 -15 5 4 8 11 15 17 15 6 0 6 -7 -2 -20z
m14487 -1217 c23 -60 96 -133 157 -158 27 -11 48 -23 48 -26 0 -4 -21 -14 -47
-24 -60 -23 -133 -96 -158 -157 -11 -27 -23 -48 -26 -48 -4 0 -14 21 -24 47
-23 60 -96 133 -157 158 -27 11 -48 23 -48 26 0 4 21 14 47 24 60 23 133 96
158 157 11 27 23 48 26 48 4 0 14 -21 24 -47z"/>
<path d="M4154 3863 c-37 -26 -47 -119 -16 -146 23 -21 75 -22 92 -2 19 23 24
106 8 127 -15 20 -67 33 -84 21z"/>
<path d="M5364 3862 c-35 -23 -45 -102 -18 -140 10 -15 25 -22 49 -22 44 0 65
29 65 92 0 37 -5 50 -22 62 -24 17 -56 20 -74 8z"/>
<path d="M777 4004 c-4 -4 -7 -74 -7 -156 l0 -148 38 0 c57 0 104 28 130 80
53 106 4 208 -108 225 -25 4 -48 3 -53 -1z"/>
<path d="M2850 3891 c-11 -37 -20 -73 -20 -80 0 -7 19 -11 50 -11 53 0 59 7
40 52 -5 13 -14 42 -20 66 -6 23 -15 42 -20 42 -5 0 -18 -31 -30 -69z"/>
<path d="M1993 3863 c-7 -2 -13 -13 -13 -24 0 -16 7 -19 48 -19 56 0 65 5 51
31 -9 18 -56 25 -86 12z"/>
<path d="M3771 3851 c-14 -25 -5 -31 49 -31 54 0 63 6 49 31 -7 14 -21 19 -49
19 -28 0 -42 -5 -49 -19z"/>
<path d="M4558 3860 c-9 -6 -22 -26 -28 -45 -20 -60 11 -115 64 -115 37 0 49
7 65 37 40 76 -31 163 -101 123z"/>
<path d="M5768 3856 c-41 -31 -46 -107 -8 -141 27 -25 80 -23 102 5 29 36 20
118 -16 142 -17 12 -59 9 -78 -6z"/>
<path d="M13283 3086 c-12 -24 -19 -47 -16 -50 7 -6 83 -9 83 -2 0 6 -41 96
-43 96 -2 0 -13 -20 -24 -44z"/>
<path d="M13942 3085 c-13 -26 -21 -49 -18 -52 2 -2 22 -3 45 -1 l41 3 -23 48
-22 49 -23 -47z"/>
<path d="M3300 2661 c-19 -37 -12 -51 24 -51 40 0 50 11 42 46 -8 30 -50 33
-66 5z"/>
<path d="M2455 2669 c-4 -6 -4 -26 -1 -45 6 -29 11 -34 36 -34 37 0 54 28 40
64 -7 20 -17 26 -39 26 -16 0 -33 -5 -36 -11z"/>
<path d="M4044 2666 c-12 -31 0 -51 31 -51 27 0 30 3 30 30 0 25 -4 30 -28 33
-17 2 -29 -2 -33 -12z"/>
<path d="M1130 2054 c-19 -22 -1 -69 25 -69 16 0 21 8 23 43 3 36 0 42 -16 42
-11 0 -25 -7 -32 -16z"/>
<path d="M3432 2058 c-32 -32 0 -95 34 -67 19 16 18 65 -2 73 -20 8 -18 8 -32
-6z"/>
<path d="M4210 2051 c-13 -26 -13 -33 4 -56 12 -16 16 -17 30 -6 9 8 16 28 16
47 0 27 -4 34 -20 34 -10 0 -24 -9 -30 -19z"/>
<path d="M2335 2058 c-5 -17 -8 -38 -6 -61 1 -14 8 -18 29 -15 24 3 27 7 27
43 0 34 -3 40 -23 43 -12 2 -24 -3 -27 -10z"/>
<path d="M3831 2048 c-12 -33 2 -63 30 -63 21 0 24 5 27 43 3 39 2 42 -23 42
-17 0 -28 -7 -34 -22z"/>
<path d="M2727 2064 c-9 -10 2 -24 19 -24 8 0 14 7 14 15 0 15 -21 21 -33 9z"/>
<path d="M3023 2023 c-23 -9 -15 -35 10 -31 12 2 22 9 22 17 0 16 -14 22 -32
14z"/>
<path d="M3570 2065 c-6 -7 -10 -29 -8 -47 2 -25 8 -34 24 -36 28 -4 48 22 40
53 -8 32 -40 50 -56 30z"/>
<path d="M3977 2063 c-13 -12 -7 -60 8 -73 8 -7 22 -10 30 -6 37 14 30 86 -9
86 -12 0 -26 -3 -29 -7z"/>
<path d="M4347 2024 c-15 -15 -7 -45 11 -42 9 2 17 12 17 22 0 20 -16 31 -28
20z"/>
<path d="M4543 2014 c-3 -8 0 -21 6 -27 10 -9 16 -8 27 7 8 11 14 23 14 28 0
15 -41 8 -47 -8z"/>
</g>
</svg>
